<?xml version="1.0" encoding="iso-8859-1"?>
<!-- Generator: Adobe Illustrator 19.0.0, SVG Export Plug-In . SVG Version: 6.00 Build 0)  -->
<svg version="1.1" id="Capa_1" xmlns="http://www.w3.org/2000/svg" xmlns:xlink="http://www.w3.org/1999/xlink" x="0px" y="0px"
	 viewBox="0 0 172.586 172.586" style="enable-background:new 0 0 172.586 172.586;" xml:space="preserve">
<g>
	<path style="fill:#010002;" d="M168.784,151.238H3.802c-2.101,0-3.802-1.7-3.802-3.802V45.428c0-2.101,1.7-3.802,3.802-3.802
		h43.735l6.679-17.813c0.557-1.485,1.975-2.465,3.56-2.465h57.026c1.585,0,3.004,0.98,3.56,2.465l6.679,17.813h43.742
		c2.101,0,3.802,1.7,3.802,3.802v102.008C172.586,149.538,170.885,151.238,168.784,151.238z M7.603,143.634h157.379V49.23h-42.577
		c-1.585,0-3.004-0.98-3.56-2.465l-6.679-17.813H60.412l-6.679,17.813c-0.557,1.485-1.975,2.465-3.56,2.465H7.603V143.634z"/>
	<path style="fill:#010002;" d="M86.289,127.477c-19.651,0-35.641-15.987-35.641-35.641s15.99-35.641,35.641-35.641
		s35.641,15.987,35.641,35.641S105.94,127.477,86.289,127.477z M86.289,63.798c-15.459,0-28.038,12.578-28.038,28.038
		s12.578,28.038,28.038,28.038s28.038-12.578,28.038-28.038S101.749,63.798,86.289,63.798z"/>
</g>
<g>
</g>
<g>
</g>
<g>
</g>
<g>
</g>
<g>
</g>
<g>
</g>
<g>
</g>
<g>
</g>
<g>
</g>
<g>
</g>
<g>
</g>
<g>
</g>
<g>
</g>
<g>
</g>
<g>
</g>
</svg>
